<svg xmlns="http://www.w3.org/2000/svg" xmlns:xlink="http://www.w3.org/1999/xlink" width="1080" zoomAndPan="magnify" viewBox="0 0 810 809.999993" height="1080" preserveAspectRatio="xMidYMid meet" version="1.0"><defs><g/><clipPath id="d72d499288"><path d="M 107 50 L 702 50 L 702 760.125 L 107 760.125 Z M 107 50 " clip-rule="nonzero"/></clipPath></defs><rect x="-81" width="972" fill="#ffffff" y="-80.999999" height="971.999992" fill-opacity="1"/><rect x="-81" width="972" fill="#ffffff" y="-80.999999" height="971.999992" fill-opacity="1"/><g clip-path="url(#d72d499288)"><path fill="#000000" d="M 404.433594 50.953125 C 400.730469 50.957031 397.03125 51.027344 393.332031 51.167969 C 389.632812 51.3125 385.941406 51.523438 382.25 51.800781 C 378.558594 52.082031 374.875 52.429688 371.195312 52.847656 C 367.519531 53.261719 363.851562 53.75 360.191406 54.304688 C 356.53125 54.859375 352.882812 55.480469 349.246094 56.171875 C 345.613281 56.863281 341.988281 57.621094 338.382812 58.445312 C 334.773438 59.273438 331.183594 60.164062 327.609375 61.125 C 324.035156 62.085938 320.480469 63.113281 316.941406 64.207031 C 313.40625 65.296875 309.894531 66.457031 306.398438 67.683594 C 302.90625 68.90625 299.4375 70.195312 295.996094 71.550781 C 292.550781 72.902344 289.132812 74.324219 285.742188 75.804688 C 282.351562 77.285156 278.988281 78.832031 275.652344 80.4375 C 272.320312 82.046875 269.019531 83.714844 265.746094 85.445312 C 262.476562 87.175781 259.238281 88.96875 256.035156 90.820312 C 252.832031 92.671875 249.664062 94.585938 246.53125 96.554688 C 243.398438 98.527344 240.300781 100.554688 237.246094 102.640625 C 234.1875 104.726562 231.171875 106.867188 228.195312 109.066406 C 225.21875 111.265625 222.285156 113.519531 219.394531 115.828125 C 216.5 118.136719 213.652344 120.5 210.851562 122.914062 C 208.046875 125.328125 205.289062 127.796875 202.578125 130.3125 C 199.867188 132.832031 197.203125 135.402344 194.585938 138.019531 C 191.972656 140.636719 189.40625 143.300781 186.890625 146.015625 C 184.375 148.730469 181.910156 151.488281 179.496094 154.292969 C 177.085938 157.101562 174.726562 159.949219 172.421875 162.84375 C 170.113281 165.738281 167.863281 168.671875 165.667969 171.652344 C 163.472656 174.628906 161.332031 177.648438 159.25 180.707031 C 157.167969 183.761719 155.140625 186.859375 153.175781 189.992188 C 151.207031 193.125 149.300781 196.296875 147.449219 199.5 C 145.601562 202.707031 143.816406 205.945312 142.085938 209.214844 C 140.359375 212.488281 138.695312 215.789062 137.089844 219.125 C 135.488281 222.457031 133.945312 225.820312 132.46875 229.214844 C 130.988281 232.605469 129.574219 236.023438 128.226562 239.46875 C 126.875 242.910156 125.589844 246.378906 124.371094 249.875 C 123.148438 253.367188 121.996094 256.878906 120.90625 260.414062 C 119.816406 263.953125 118.792969 267.507812 117.839844 271.082031 C 116.882812 274.652344 115.996094 278.246094 115.171875 281.851562 C 114.351562 285.460938 113.597656 289.082031 112.910156 292.714844 C 112.226562 296.351562 111.609375 299.996094 111.058594 303.65625 C 110.507812 307.316406 110.027344 310.980469 109.617188 314.660156 C 109.203125 318.335938 108.859375 322.019531 108.585938 325.707031 C 108.308594 329.394531 108.105469 333.089844 107.96875 336.785156 C 107.832031 340.484375 107.765625 344.179688 107.765625 347.882812 C 107.769531 351.582031 107.839844 355.277344 107.980469 358.976562 C 108.121094 362.671875 108.332031 366.363281 108.609375 370.054688 C 108.886719 373.742188 109.234375 377.425781 109.652344 381.101562 C 110.066406 384.777344 110.550781 388.445312 111.105469 392.101562 C 111.660156 395.757812 112.28125 399.40625 112.972656 403.039062 C 113.660156 406.675781 114.417969 410.296875 115.246094 413.902344 C 116.070312 417.507812 116.960938 421.097656 117.921875 424.671875 C 118.882812 428.242188 119.90625 431.796875 121 435.332031 C 122.09375 438.867188 123.25 442.378906 124.476562 445.871094 C 125.699219 449.363281 126.988281 452.828125 128.34375 456.273438 C 129.695312 459.714844 131.113281 463.132812 132.597656 466.523438 C 134.078125 469.910156 135.621094 473.273438 137.230469 476.605469 C 138.835938 479.9375 140.507812 483.238281 142.238281 486.507812 C 143.96875 489.777344 145.761719 493.015625 147.613281 496.21875 C 149.464844 499.421875 151.375 502.589844 153.347656 505.71875 C 155.316406 508.851562 157.34375 511.945312 159.429688 515 C 161.519531 518.054688 163.660156 521.070312 165.859375 524.046875 C 168.058594 527.023438 170.3125 529.957031 172.621094 532.847656 C 174.929688 535.738281 177.292969 538.585938 179.707031 541.390625 C 182.125 544.191406 184.589844 546.949219 187.109375 549.660156 C 189.628906 552.371094 192.195312 555.035156 194.8125 557.648438 C 197.433594 560.265625 200.097656 562.828125 202.8125 565.34375 L 394.28125 756.851562 C 395.667969 758.117188 397.230469 759.101562 398.972656 759.796875 C 400.714844 760.496094 402.523438 760.867188 404.398438 760.910156 C 406.386719 760.867188 408.308594 760.5 410.167969 759.804688 C 412.023438 759.105469 413.714844 758.121094 415.238281 756.851562 L 603.695312 567.734375 C 606.460938 565.242188 609.183594 562.699219 611.851562 560.105469 C 614.523438 557.507812 617.144531 554.867188 619.71875 552.171875 C 622.289062 549.480469 624.808594 546.738281 627.277344 543.949219 C 629.746094 541.160156 632.160156 538.328125 634.523438 535.449219 C 636.882812 532.570312 639.191406 529.648438 641.441406 526.683594 C 643.695312 523.714844 645.890625 520.707031 648.027344 517.660156 C 650.164062 514.613281 652.246094 511.523438 654.265625 508.398438 C 656.289062 505.269531 658.25 502.105469 660.152344 498.90625 C 662.054688 495.707031 663.898438 492.46875 665.679688 489.199219 C 667.460938 485.929688 669.175781 482.628906 670.832031 479.292969 C 672.488281 475.957031 674.082031 472.59375 675.613281 469.199219 C 677.140625 465.804688 678.605469 462.382812 680.007812 458.933594 C 681.40625 455.480469 682.742188 452.007812 684.011719 448.507812 C 685.28125 445.007812 686.484375 441.484375 687.621094 437.9375 C 688.757812 434.394531 689.828125 430.828125 690.828125 427.242188 C 691.832031 423.65625 692.765625 420.054688 693.632812 416.433594 C 694.5 412.8125 695.296875 409.175781 696.027344 405.523438 C 696.753906 401.875 697.414062 398.210938 698.007812 394.535156 C 698.597656 390.859375 699.121094 387.171875 699.574219 383.476562 C 700.027344 379.78125 700.410156 376.078125 700.722656 372.371094 C 701.035156 368.660156 701.277344 364.945312 701.449219 361.226562 C 701.625 357.507812 701.726562 353.785156 701.757812 350.0625 C 701.792969 346.339844 701.753906 342.617188 701.648438 338.898438 C 701.539062 335.175781 701.363281 331.457031 701.113281 327.742188 C 700.867188 324.027344 700.546875 320.320312 700.160156 316.617188 C 699.773438 312.914062 699.316406 309.21875 698.789062 305.535156 C 698.261719 301.847656 697.667969 298.175781 697.003906 294.511719 C 696.335938 290.847656 695.605469 287.199219 694.800781 283.5625 C 694 279.925781 693.128906 276.308594 692.1875 272.707031 C 691.25 269.101562 690.242188 265.519531 689.167969 261.953125 C 688.09375 258.390625 686.953125 254.847656 685.746094 251.324219 C 684.539062 247.800781 683.265625 244.304688 681.925781 240.832031 C 680.585938 237.355469 679.179688 233.910156 677.710938 230.488281 C 676.242188 227.066406 674.707031 223.675781 673.113281 220.3125 C 671.515625 216.949219 669.855469 213.617188 668.132812 210.316406 C 666.410156 207.015625 664.625 203.746094 662.777344 200.511719 C 660.933594 197.28125 659.027344 194.082031 657.058594 190.921875 C 655.09375 187.757812 653.066406 184.632812 650.984375 181.550781 C 648.898438 178.464844 646.757812 175.417969 644.558594 172.414062 C 642.359375 169.40625 640.105469 166.445312 637.792969 163.527344 C 635.484375 160.605469 633.117188 157.730469 630.699219 154.898438 C 628.28125 152.066406 625.808594 149.28125 623.285156 146.546875 C 620.761719 143.808594 618.1875 141.117188 615.5625 138.476562 C 612.9375 135.835938 610.261719 133.246094 607.539062 130.703125 C 604.816406 128.164062 602.046875 125.675781 599.230469 123.238281 C 596.414062 120.804688 593.550781 118.421875 590.644531 116.09375 C 587.738281 113.765625 584.789062 111.492188 581.796875 109.273438 C 578.804688 107.058594 575.773438 104.898438 572.699219 102.792969 C 569.625 100.691406 566.511719 98.644531 563.363281 96.660156 C 560.210938 94.675781 557.023438 92.75 553.800781 90.882812 C 550.578125 89.015625 547.320312 87.210938 544.03125 85.46875 C 540.738281 83.726562 537.414062 82.042969 534.0625 80.425781 C 530.707031 78.808594 527.324219 77.253906 523.910156 75.761719 C 520.496094 74.273438 517.054688 72.84375 513.589844 71.484375 C 510.121094 70.121094 506.632812 68.828125 503.117188 67.597656 C 499.601562 66.367188 496.0625 65.203125 492.503906 64.109375 C 488.941406 63.011719 485.363281 61.980469 481.765625 61.019531 C 478.167969 60.058594 474.550781 59.164062 470.921875 58.339844 C 467.289062 57.511719 463.640625 56.753906 459.980469 56.066406 C 456.320312 55.378906 452.648438 54.757812 448.964844 54.207031 C 445.28125 53.660156 441.585938 53.179688 437.886719 52.765625 C 434.183594 52.355469 430.476562 52.015625 426.761719 51.742188 C 423.046875 51.472656 419.328125 51.269531 415.605469 51.136719 C 411.882812 51.007812 408.15625 50.945312 404.433594 50.953125 Z M 336.386719 532.023438 C 335.121094 532.007812 333.855469 531.929688 332.597656 531.789062 C 331.339844 531.648438 330.089844 531.445312 328.851562 531.183594 C 327.613281 530.917969 326.390625 530.597656 325.183594 530.214844 C 323.976562 529.832031 322.792969 529.390625 321.628906 528.890625 C 320.464844 528.390625 319.328125 527.835938 318.21875 527.226562 C 317.109375 526.617188 316.03125 525.953125 314.988281 525.238281 C 313.941406 524.523438 312.933594 523.757812 311.964844 522.945312 C 310.996094 522.128906 310.070312 521.269531 309.183594 520.363281 C 308.296875 519.460938 307.460938 518.511719 306.667969 517.527344 C 305.875 516.539062 305.132812 515.515625 304.441406 514.453125 C 303.75 513.394531 303.109375 512.304688 302.523438 511.179688 C 301.9375 510.058594 301.410156 508.910156 300.9375 507.734375 C 300.464844 506.5625 300.050781 505.367188 299.695312 504.152344 C 299.339844 502.9375 299.046875 501.707031 298.8125 500.464844 C 298.574219 499.21875 298.402344 497.96875 298.289062 496.707031 C 298.179688 495.445312 298.128906 494.183594 298.140625 492.917969 C 298.152344 491.652344 298.226562 490.390625 298.359375 489.128906 C 298.496094 487.871094 298.691406 486.621094 298.949219 485.382812 C 299.207031 484.144531 299.527344 482.921875 299.902344 481.710938 C 300.28125 480.503906 300.71875 479.316406 301.210938 478.152344 C 301.707031 476.988281 302.257812 475.847656 302.863281 474.738281 C 303.46875 473.625 304.125 472.546875 304.839844 471.5 C 305.550781 470.453125 306.3125 469.441406 307.121094 468.46875 C 307.933594 467.496094 308.789062 466.566406 309.691406 465.679688 C 310.59375 464.789062 311.535156 463.949219 312.519531 463.152344 C 313.503906 462.355469 314.523438 461.609375 315.582031 460.914062 C 316.640625 460.214844 317.730469 459.574219 318.851562 458.984375 C 319.96875 458.394531 321.117188 457.859375 322.289062 457.382812 C 323.464844 456.90625 324.65625 456.488281 325.871094 456.125 C 327.085938 455.765625 328.3125 455.464844 329.554688 455.226562 C 330.800781 454.984375 332.050781 454.808594 333.3125 454.691406 C 334.574219 454.574219 335.835938 454.515625 337.105469 454.523438 C 338.371094 454.53125 339.632812 454.597656 340.894531 454.726562 C 342.152344 454.859375 343.402344 455.050781 344.644531 455.300781 C 345.886719 455.554688 347.109375 455.867188 348.320312 456.238281 C 349.53125 456.613281 350.71875 457.042969 351.886719 457.53125 C 353.054688 458.019531 354.199219 458.566406 355.3125 459.167969 C 356.425781 459.765625 357.507812 460.421875 358.558594 461.128906 C 359.609375 461.835938 360.625 462.589844 361.601562 463.398438 C 362.578125 464.203125 363.511719 465.054688 364.40625 465.953125 C 365.296875 466.851562 366.144531 467.789062 366.945312 468.769531 C 367.746094 469.75 368.496094 470.765625 369.199219 471.820312 C 369.898438 472.875 370.546875 473.960938 371.140625 475.078125 C 371.734375 476.195312 372.273438 477.339844 372.757812 478.511719 C 373.238281 479.679688 373.664062 480.871094 374.03125 482.082031 C 374.394531 483.296875 374.699219 484.523438 374.945312 485.765625 C 375.191406 487.007812 375.375 488.257812 375.5 489.515625 C 375.621094 490.777344 375.683594 492.039062 375.679688 493.304688 C 375.671875 494.582031 375.597656 495.855469 375.460938 497.125 C 375.328125 498.394531 375.128906 499.652344 374.871094 500.902344 C 374.609375 502.15625 374.289062 503.390625 373.910156 504.609375 C 373.53125 505.828125 373.089844 507.023438 372.59375 508.199219 C 372.09375 509.375 371.539062 510.523438 370.929688 511.644531 C 370.320312 512.765625 369.652344 513.855469 368.9375 514.914062 C 368.21875 515.96875 367.453125 516.988281 366.632812 517.96875 C 365.816406 518.949219 364.953125 519.890625 364.042969 520.785156 C 363.132812 521.679688 362.183594 522.53125 361.1875 523.335938 C 360.195312 524.136719 359.164062 524.890625 358.097656 525.59375 C 357.03125 526.292969 355.933594 526.941406 354.800781 527.535156 C 353.671875 528.132812 352.515625 528.667969 351.332031 529.148438 C 350.148438 529.628906 348.945312 530.050781 347.71875 530.414062 C 346.492188 530.777344 345.253906 531.082031 344 531.320312 C 342.746094 531.5625 341.480469 531.742188 340.210938 531.859375 C 338.9375 531.976562 337.664062 532.03125 336.386719 532.023438 Z M 469.238281 532.023438 C 467.96875 532.027344 466.699219 531.964844 465.4375 531.839844 C 464.171875 531.71875 462.917969 531.53125 461.671875 531.285156 C 460.425781 531.039062 459.195312 530.730469 457.976562 530.363281 C 456.761719 529.996094 455.566406 529.570312 454.394531 529.085938 C 453.21875 528.601562 452.070312 528.058594 450.953125 527.460938 C 449.832031 526.863281 448.742188 526.210938 447.683594 525.507812 C 446.628906 524.804688 445.609375 524.046875 444.625 523.242188 C 443.644531 522.4375 442.703125 521.585938 441.804688 520.691406 C 440.90625 519.792969 440.054688 518.851562 439.246094 517.871094 C 438.441406 516.890625 437.683594 515.875 436.980469 514.816406 C 436.273438 513.761719 435.621094 512.675781 435.019531 511.554688 C 434.421875 510.4375 433.878906 509.289062 433.390625 508.117188 C 432.90625 506.945312 432.476562 505.75 432.109375 504.535156 C 431.738281 503.320312 431.429688 502.089844 431.179688 500.847656 C 430.933594 499.601562 430.746094 498.347656 430.621094 497.082031 C 430.496094 495.820312 430.433594 494.550781 430.433594 493.28125 C 430.433594 492.011719 430.496094 490.746094 430.621094 489.484375 C 430.742188 488.21875 430.929688 486.964844 431.175781 485.71875 C 431.425781 484.472656 431.734375 483.246094 432.101562 482.027344 C 432.46875 480.8125 432.898438 479.621094 433.382812 478.445312 C 433.867188 477.273438 434.410156 476.128906 435.011719 475.007812 C 435.609375 473.886719 436.261719 472.800781 436.964844 471.746094 C 437.671875 470.6875 438.429688 469.671875 439.234375 468.6875 C 440.039062 467.707031 440.890625 466.765625 441.789062 465.871094 C 442.6875 464.972656 443.628906 464.121094 444.609375 463.316406 C 445.59375 462.507812 446.609375 461.753906 447.667969 461.046875 C 448.722656 460.34375 449.8125 459.691406 450.933594 459.09375 C 452.050781 458.496094 453.199219 457.953125 454.375 457.46875 C 455.546875 456.980469 456.742188 456.554688 457.957031 456.1875 C 459.171875 455.816406 460.402344 455.507812 461.648438 455.261719 C 462.894531 455.015625 464.152344 454.828125 465.414062 454.703125 C 466.679688 454.582031 467.945312 454.519531 469.214844 454.519531 C 470.488281 454.519531 471.753906 454.582031 473.019531 454.707031 C 474.28125 454.832031 475.539062 455.019531 476.78125 455.265625 C 478.027344 455.515625 479.257812 455.824219 480.476562 456.191406 C 481.691406 456.5625 482.882812 456.988281 484.058594 457.476562 C 485.230469 457.960938 486.378906 458.503906 487.5 459.105469 C 488.617188 459.703125 489.707031 460.355469 490.761719 461.0625 C 491.816406 461.765625 492.835938 462.523438 493.816406 463.328125 C 494.800781 464.132812 495.738281 464.988281 496.636719 465.886719 C 497.535156 466.785156 498.386719 467.722656 499.191406 468.707031 C 499.996094 469.6875 500.75 470.707031 501.457031 471.761719 C 502.160156 472.820312 502.8125 473.90625 503.410156 475.027344 C 504.007812 476.148438 504.550781 477.292969 505.035156 478.46875 C 505.523438 479.640625 505.949219 480.835938 506.316406 482.050781 C 506.683594 483.265625 506.992188 484.496094 507.238281 485.742188 C 507.484375 486.988281 507.671875 488.242188 507.792969 489.503906 C 507.917969 490.769531 507.976562 492.035156 507.976562 493.304688 C 507.96875 494.570312 507.902344 495.832031 507.769531 497.089844 C 507.640625 498.347656 507.449219 499.597656 507.195312 500.839844 C 506.945312 502.078125 506.632812 503.304688 506.261719 504.511719 C 505.886719 505.722656 505.457031 506.910156 504.972656 508.078125 C 504.484375 509.246094 503.941406 510.386719 503.339844 511.503906 C 502.742188 512.617188 502.089844 513.703125 501.386719 514.753906 C 500.679688 515.804688 499.925781 516.820312 499.125 517.796875 C 498.320312 518.773438 497.472656 519.710938 496.574219 520.605469 C 495.679688 521.5 494.746094 522.351562 493.765625 523.15625 C 492.789062 523.957031 491.773438 524.714844 490.722656 525.417969 C 489.671875 526.125 488.589844 526.777344 487.476562 527.375 C 486.359375 527.976562 485.21875 528.519531 484.050781 529.007812 C 482.882812 529.496094 481.695312 529.925781 480.484375 530.300781 C 479.273438 530.671875 478.046875 530.984375 476.808594 531.238281 C 475.566406 531.492188 474.316406 531.683594 473.058594 531.816406 C 471.800781 531.945312 470.535156 532.015625 469.269531 532.023438 Z M 533.421875 301.472656 L 503.164062 414.75 C 502.640625 416.589844 501.976562 418.375 501.167969 420.109375 C 500.359375 421.839844 499.417969 423.496094 498.339844 425.074219 C 497.265625 426.65625 496.070312 428.140625 494.757812 429.53125 C 493.445312 430.917969 492.027344 432.195312 490.511719 433.355469 C 488.992188 434.519531 487.390625 435.550781 485.707031 436.457031 C 484.023438 437.359375 482.277344 438.125 480.46875 438.75 C 478.660156 439.375 476.816406 439.851562 474.933594 440.179688 C 473.046875 440.507812 471.148438 440.683594 469.238281 440.707031 L 336.386719 440.707031 C 335.433594 440.710938 334.484375 440.679688 333.53125 440.605469 C 332.582031 440.53125 331.640625 440.417969 330.699219 440.269531 C 329.757812 440.117188 328.824219 439.925781 327.902344 439.699219 C 326.976562 439.46875 326.0625 439.203125 325.160156 438.898438 C 324.257812 438.59375 323.371094 438.253906 322.496094 437.875 C 321.621094 437.5 320.765625 437.085938 319.925781 436.636719 C 319.085938 436.191406 318.265625 435.707031 317.464844 435.191406 C 316.664062 434.675781 315.886719 434.128906 315.132812 433.546875 C 314.375 432.964844 313.648438 432.355469 312.941406 431.714844 C 312.238281 431.074219 311.5625 430.40625 310.914062 429.710938 C 310.261719 429.011719 309.644531 428.289062 309.054688 427.542969 C 308.464844 426.792969 307.910156 426.023438 307.382812 425.230469 C 306.859375 424.4375 306.367188 423.621094 305.90625 422.789062 C 305.449219 421.953125 305.027344 421.101562 304.640625 420.230469 C 304.25 419.363281 303.898438 418.476562 303.585938 417.578125 C 303.269531 416.679688 302.996094 415.769531 302.753906 414.851562 L 271.746094 301.472656 C 271.777344 301.242188 271.777344 301.011719 271.746094 300.785156 L 258.1875 250.640625 L 237.492188 250.640625 C 236.542969 250.597656 235.609375 250.464844 234.6875 250.242188 C 233.765625 250.015625 232.871094 249.707031 232.007812 249.316406 C 231.144531 248.921875 230.324219 248.449219 229.550781 247.898438 C 228.78125 247.351562 228.066406 246.734375 227.410156 246.046875 C 226.753906 245.359375 226.171875 244.617188 225.65625 243.820312 C 225.144531 243.023438 224.710938 242.183594 224.359375 241.304688 C 224.003906 240.421875 223.738281 239.515625 223.558594 238.585938 C 223.378906 237.652344 223.289062 236.714844 223.289062 235.765625 C 223.289062 234.816406 223.378906 233.878906 223.558594 232.945312 C 223.738281 232.015625 224.003906 231.109375 224.359375 230.226562 C 224.710938 229.347656 225.144531 228.507812 225.65625 227.710938 C 226.171875 226.914062 226.753906 226.171875 227.410156 225.484375 C 228.066406 224.796875 228.78125 224.179688 229.550781 223.628906 C 230.324219 223.082031 231.144531 222.609375 232.007812 222.214844 C 232.871094 221.820312 233.765625 221.515625 234.6875 221.289062 C 235.609375 221.066406 236.542969 220.933594 237.492188 220.890625 L 269.617188 220.890625 C 270.410156 220.859375 271.199219 220.898438 271.988281 221.003906 C 272.773438 221.109375 273.546875 221.285156 274.304688 221.523438 C 275.0625 221.761719 275.792969 222.066406 276.496094 222.433594 C 277.203125 222.796875 277.871094 223.222656 278.503906 223.703125 C 279.132812 224.183594 279.71875 224.71875 280.257812 225.300781 C 280.796875 225.882812 281.285156 226.507812 281.714844 227.175781 C 282.148438 227.839844 282.519531 228.539062 282.828125 229.269531 C 283.140625 230 283.386719 230.753906 283.566406 231.527344 L 297.320312 283.078125 L 519.144531 283.078125 C 520.265625 283.007812 521.378906 283.082031 522.480469 283.300781 C 523.582031 283.523438 524.636719 283.878906 525.644531 284.378906 C 526.65625 284.875 527.582031 285.492188 528.429688 286.230469 C 529.273438 286.972656 530.011719 287.808594 530.636719 288.738281 C 531.398438 289.59375 532.035156 290.527344 532.558594 291.542969 C 533.078125 292.558594 533.460938 293.625 533.707031 294.738281 C 533.953125 295.851562 534.054688 296.980469 534.011719 298.121094 C 533.96875 299.261719 533.785156 300.378906 533.453125 301.472656 Z M 533.421875 301.472656 " fill-opacity="1" fill-rule="nonzero"/></g><g fill="#000000" fill-opacity="1"><g transform="translate(346.421237, 387.202882)"><g><path d="M 98.109375 -77.75 C 98.109375 -71.8125 96.179688 -65.601562 92.328125 -59.125 C 88.472656 -52.644531 83.148438 -47 76.359375 -42.1875 C 69.578125 -37.382812 62.570312 -34.367188 55.34375 -33.140625 C 51.1875 -24.753906 48.1875 -18.890625 46.34375 -15.546875 L 44.203125 -12.078125 C 57.703125 -8.734375 68.882812 -3.648438 77.75 3.171875 C 82.25 6.648438 85.285156 10.910156 86.859375 15.953125 C 87.671875 18.546875 88.078125 20.765625 88.078125 22.609375 C 88.078125 24.453125 87.71875 26.003906 87 27.265625 C 86.289062 28.523438 85.457031 29.394531 84.5 29.875 C 83.550781 30.351562 82.867188 30.59375 82.453125 30.59375 C 82.046875 30.59375 81.84375 30.421875 81.84375 30.078125 C 81.84375 29.734375 82.234375 28.722656 83.015625 27.046875 C 83.804688 25.378906 84.203125 23.421875 84.203125 21.171875 C 84.203125 18.921875 83.722656 16.429688 82.765625 13.703125 C 81.804688 10.972656 80.03125 8.46875 77.4375 6.1875 C 74.851562 3.90625 71.257812 1.757812 66.65625 -0.25 C 62.050781 -2.269531 58.0625 -3.703125 54.6875 -4.546875 C 51.3125 -5.398438 46.789062 -6.375 41.125 -7.46875 C 35.332031 0.644531 29.300781 6.203125 23.03125 9.203125 C 19.269531 11.046875 15.941406 11.96875 13.046875 11.96875 C 10.148438 11.96875 7.578125 11.390625 5.328125 10.234375 C 1.441406 8.316406 -0.5 5.414062 -0.5 1.53125 C -0.5 -2.351562 2.054688 -5.757812 7.171875 -8.6875 C 12.960938 -12.101562 20.804688 -13.8125 30.703125 -13.8125 C 34.242188 -13.8125 37.445312 -13.535156 40.3125 -12.984375 C 43.382812 -17.765625 46.960938 -24.347656 51.046875 -32.734375 C 50.640625 -32.734375 50.265625 -32.734375 49.921875 -32.734375 C 45.628906 -32.734375 41.640625 -33.445312 37.953125 -34.875 C 34.273438 -36.3125 31.34375 -38.257812 29.15625 -40.71875 C 26.289062 -43.914062 24.859375 -47.53125 24.859375 -51.5625 C 24.859375 -53.675781 25.382812 -55.957031 26.4375 -58.40625 C 27.5 -60.863281 29.851562 -63.351562 33.5 -65.875 C 37.15625 -68.40625 41.78125 -70.316406 47.375 -71.609375 C 48.257812 -71.816406 49.007812 -71.921875 49.625 -71.921875 C 50.238281 -71.921875 50.613281 -71.75 50.75 -71.40625 C 50.882812 -71.0625 50.609375 -70.753906 49.921875 -70.484375 C 49.242188 -70.210938 48.460938 -70.007812 47.578125 -69.875 C 44.640625 -69.53125 41.910156 -68.539062 39.390625 -66.90625 C 35.023438 -64.101562 31.988281 -59.804688 30.28125 -54.015625 C 29.875 -52.648438 29.671875 -51.335938 29.671875 -50.078125 C 29.671875 -48.816406 29.910156 -47.296875 30.390625 -45.515625 C 30.867188 -43.742188 31.890625 -41.921875 33.453125 -40.046875 C 35.023438 -38.171875 37.15625 -36.859375 39.84375 -36.109375 C 42.539062 -35.359375 44.894531 -34.984375 46.90625 -34.984375 C 48.914062 -34.984375 50.773438 -35.085938 52.484375 -35.296875 L 61.1875 -57.1875 C 67.1875 -72.59375 74.34375 -82.070312 82.65625 -85.625 C 84.84375 -86.507812 86.972656 -86.953125 89.046875 -86.953125 C 91.128906 -86.953125 93.109375 -86.285156 94.984375 -84.953125 C 96.859375 -83.628906 97.863281 -82.007812 98 -80.09375 C 98.070312 -79.28125 98.109375 -78.5 98.109375 -77.75 Z M 93.8125 -77.640625 C 93.8125 -80.234375 92.617188 -81.53125 90.234375 -81.53125 C 86.753906 -81.53125 82.523438 -78.492188 77.546875 -72.421875 C 73.660156 -67.578125 69.925781 -61.726562 66.34375 -54.875 C 62.757812 -48.019531 59.570312 -41.695312 56.78125 -35.90625 C 66.257812 -38.019531 74.800781 -43.21875 82.40625 -51.5 C 90.007812 -59.789062 93.8125 -68.503906 93.8125 -77.640625 Z M 37.140625 -8.078125 C 33.796875 -8.828125 30.347656 -9.203125 26.796875 -9.203125 C 23.253906 -9.203125 19.609375 -8.691406 15.859375 -7.671875 C 8.015625 -5.628906 3.410156 -2.734375 2.046875 1.015625 C 1.773438 1.703125 1.640625 2.351562 1.640625 2.96875 C 1.640625 4.738281 2.609375 6.1875 4.546875 7.3125 C 6.492188 8.4375 8.628906 9 10.953125 9 C 14.160156 9 17.640625 8.113281 21.390625 6.34375 C 27.046875 3.613281 32.296875 -1.191406 37.140625 -8.078125 Z M 37.140625 -8.078125 "/></g></g></g></svg>